<svg width="124" height="34" viewBox="0 0 124 34" fill="none" xmlns="http://www.w3.org/2000/svg">
<path d="M10.11 8.045C7.45 8.045 5.42 9.025 3.985 11.02V8.5H0.205V33H3.985V23.515C5.42 25.475 7.45 26.455 10.11 26.455C12.525 26.455 14.555 25.58 16.27 23.795C17.985 22.01 18.825 19.84 18.825 17.25C18.825 14.695 17.985 12.525 16.27 10.74C14.555 8.955 12.525 8.045 10.11 8.045ZM5.56 21.275C4.51 20.19 3.985 18.86 3.985 17.25C3.985 15.64 4.51 14.31 5.56 13.26C6.61 12.175 7.94 11.65 9.515 11.65C11.09 11.65 12.42 12.175 13.47 13.26C14.52 14.31 15.045 15.64 15.045 17.25C15.045 18.86 14.52 20.19 13.47 21.275C12.42 22.325 11.09 22.85 9.515 22.85C7.94 22.85 6.61 22.325 5.56 21.275ZM31.4559 8.045C28.9709 8.045 27.1859 8.955 26.0309 10.74V1.5H22.2509V26H26.0309V16.62C26.0309 13.225 27.8159 11.58 30.4759 11.58C32.8909 11.58 34.3959 13.015 34.3959 15.64V26H38.1759V15.255C38.1759 10.775 35.4809 8.045 31.4559 8.045ZM50.506 26.455C53.096 26.455 55.266 25.58 57.051 23.795C58.836 22.01 59.746 19.84 59.746 17.25C59.746 14.66 58.836 12.49 57.051 10.705C55.266 8.92 53.096 8.045 50.506 8.045C47.951 8.045 45.746 8.92 43.961 10.705C42.176 12.49 41.266 14.66 41.266 17.25C41.266 19.84 42.176 22.01 43.961 23.795C45.746 25.58 47.951 26.455 50.506 26.455ZM46.621 21.205C45.571 20.155 45.046 18.825 45.046 17.25C45.046 15.675 45.571 14.345 46.621 13.295C47.671 12.245 48.966 11.72 50.506 11.72C52.046 11.72 53.341 12.245 54.391 13.295C55.441 14.345 55.966 15.675 55.966 17.25C55.966 18.825 55.441 20.155 54.391 21.205C53.341 22.255 52.046 22.78 50.506 22.78C48.966 22.78 47.671 22.255 46.621 21.205ZM72.5872 8.5H68.2472V3.6L64.4672 4.72V8.5H61.2472V12.14H64.4672V20.54C64.4672 25.125 66.8122 26.7 72.5872 26V22.605C69.7172 22.745 68.2472 22.78 68.2472 20.54V12.14H72.5872V8.5ZM83.5578 26.455C86.1478 26.455 88.3178 25.58 90.1028 23.795C91.8878 22.01 92.7978 19.84 92.7978 17.25C92.7978 14.66 91.8878 12.49 90.1028 10.705C88.3178 8.92 86.1478 8.045 83.5578 8.045C81.0028 8.045 78.7978 8.92 77.0128 10.705C75.2278 12.49 74.3178 14.66 74.3178 17.25C74.3178 19.84 75.2278 22.01 77.0128 23.795C78.7978 25.58 81.0028 26.455 83.5578 26.455ZM79.6728 21.205C78.6228 20.155 78.0978 18.825 78.0978 17.25C78.0978 15.675 78.6228 14.345 79.6728 13.295C80.7228 12.245 82.0178 11.72 83.5578 11.72C85.0978 11.72 86.3928 12.245 87.4428 13.295C88.4928 14.345 89.0178 15.675 89.0178 17.25C89.0178 18.825 88.4928 20.155 87.4428 21.205C86.3928 22.255 85.0978 22.78 83.5578 22.78C82.0178 22.78 80.7228 22.255 79.6728 21.205ZM104.771 1.045C99.5905 0.729998 96.8605 3.355 96.8605 8.15V8.5H94.2005V12.14H96.8605V26H100.641V12.14H104.771V8.5H100.641V8.15C100.641 5.595 102.006 4.44 104.771 4.685V1.045ZM114.981 21.205L109.766 8.5H105.636L113.056 25.685L112.881 26.035C111.936 28.45 110.606 29.605 108.226 29.465V33C112.251 33.245 115.086 31.075 116.766 26.56L123.486 8.5H119.461L114.981 21.205Z" fill="black"/>
</svg>
